<?xml version="1.0" encoding="UTF-8" standalone="no"?>
<!DOCTYPE svg PUBLIC "-//W3C//DTD SVG 1.1//EN" "http://www.w3.org/Graphics/SVG/1.1/DTD/svg11.dtd">
<svg xmlns="http://www.w3.org/2000/svg" version="1.1" viewBox="0.00 0.00 895.00 895.00">
<path fill="#ece6e0" d="
  M 448.94 185.61
  C 451.66 185.61 453.83 185.64 453.84 189.00
  Q 453.94 235.55 453.84 290.70
  A 0.44 0.44 0.0 0 0 454.28 291.14
  L 531.61 291.14
  A 0.44 0.43 0.0 0 0 532.05 290.71
  Q 532.13 265.66 532.00 252.02
  Q 531.74 222.49 512.76 199.52
  Q 492.92 175.50 460.25 170.15
  Q 456.48 169.53 455.73 168.44
  Q 454.29 166.36 454.68 163.28
  Q 455.23 158.97 460.05 159.71
  Q 502.69 166.25 526.23 200.02
  Q 542.85 223.88 542.88 254.02
  Q 542.93 322.10 542.85 348.75
  C 542.85 350.33 542.43 352.30 540.95 353.16
  C 537.87 354.95 532.15 354.35 532.12 349.78
  Q 531.98 328.55 532.08 301.44
  A 0.41 0.40 -90.0 0 0 531.68 301.03
  L 454.30 301.03
  A 0.46 0.46 0.0 0 0 453.84 301.49
  Q 453.89 344.71 453.82 393.58
  C 453.82 397.51 453.63 399.89 448.90 399.89
  C 444.17 399.89 443.98 397.50 443.98 393.58
  Q 443.93 344.71 443.99 301.49
  A 0.46 0.46 0.0 0 0 443.53 301.03
  L 366.15 301.00
  A 0.41 0.40 -90.0 0 0 365.75 301.41
  Q 365.85 328.52 365.70 349.75
  C 365.67 354.32 359.95 354.92 356.87 353.13
  C 355.39 352.27 354.97 350.30 354.97 348.72
  Q 354.90 322.07 354.97 253.99
  Q 355.01 223.85 371.64 199.99
  Q 395.19 166.23 437.83 159.71
  Q 442.65 158.97 443.20 163.28
  Q 443.59 166.36 442.15 168.44
  Q 441.40 169.53 437.63 170.15
  Q 404.96 175.49 385.11 199.50
  Q 366.12 222.46 365.85 251.99
  Q 365.72 265.63 365.79 290.68
  A 0.44 0.43 0.0 0 0 366.23 291.11
  L 443.56 291.14
  A 0.44 0.44 0.0 0 0 444.00 290.70
  Q 443.92 235.55 444.03 188.99
  C 444.04 185.63 446.21 185.61 448.94 185.61
  Z"
/>
<path fill="#eabdc7" d="
  M 429.04 402.32
  L 426.11 402.32
  A 1.54 1.52 80.3 0 1 424.67 401.29
  Q 422.45 394.89 418.54 388.50
  A 1.60 1.59 65.1 0 0 416.69 387.82
  Q 411.71 389.47 410.50 389.68
  C 404.53 390.74 396.49 388.52 392.00 384.00
  Q 389.13 381.11 389.88 376.43
  A 1.07 1.07 0.0 0 0 389.20 375.25
  C 379.73 371.74 372.44 364.49 384.20 356.96
  A 0.71 0.71 0.0 0 0 384.45 356.03
  Q 383.54 354.21 383.17 352.89
  C 380.50 343.45 389.74 340.69 395.96 346.05
  A 0.89 0.88 -48.5 0 0 397.19 345.97
  Q 398.44 344.59 399.29 343.82
  C 404.92 338.74 410.63 342.35 412.99 348.36
  Q 413.99 350.88 414.48 354.44
  A 0.87 0.86 -8.9 0 0 415.49 355.17
  C 420.33 354.29 423.66 359.21 424.82 363.16
  Q 428.11 374.37 421.57 384.15
  A 0.80 0.79 -45.5 0 0 421.57 385.04
  Q 426.51 392.46 429.74 401.32
  A 0.75 0.74 80.1 0 1 429.04 402.32
  Z
  M 408.65 359.65
  Q 411.56 354.30 408.12 348.59
  C 406.43 345.81 403.15 344.72 401.37 348.07
  Q 399.55 351.44 401.27 355.96
  A 1.50 1.50 0.0 0 0 402.01 356.78
  L 408.20 359.80
  A 0.34 0.33 -62.5 0 0 408.65 359.65
  Z
  M 387.8243 348.1252
  A 6.33 3.44 -130.2 0 0 389.2825 355.1804
  A 6.33 3.44 -130.2 0 0 395.9957 357.7948
  A 6.33 3.44 -130.2 0 0 394.5375 350.7396
  A 6.33 3.44 -130.2 0 0 387.8243 348.1252
  Z
  M 418.56 380.35
  A 0.37 0.37 0.0 0 0 419.15 380.22
  Q 422.59 371.99 420.50 363.91
  C 419.90 361.62 418.07 359.03 415.48 359.43
  C 413.77 359.68 412.18 361.66 412.08 363.11
  Q 411.29 373.51 418.56 380.35
  Z
  M 395.61 370.54
  A 0.34 0.33 -17.9 0 0 395.83 370.13
  L 393.89 363.54
  A 1.50 1.50 0.0 0 0 393.20 362.66
  Q 389.04 360.22 385.42 361.45
  C 381.82 362.65 382.34 366.05 384.81 368.18
  Q 389.85 372.52 395.61 370.54
  Z
  M 408.48 372.68
  C 408.54 372.63 408.61 372.53 408.60 372.44
  Q 408.07 367.46 407.14 365.83
  Q 404.71 361.53 399.61 361.26
  Q 399.43 361.25 399.14 361.49
  Q 398.79 361.79 398.76 361.97
  Q 398.11 367.04 401.91 370.20
  Q 403.36 371.40 408.16 372.81
  C 408.25 372.83 408.36 372.78 408.48 372.68
  Z
  M 414.00 384.12
  A 0.37 0.37 0.0 0 0 414.17 383.53
  Q 408.53 376.69 400.47 374.78
  C 398.19 374.25 395.06 374.65 394.21 377.11
  C 393.64 378.73 394.63 381.04 395.86 381.81
  Q 404.63 387.32 414.00 384.12
  Z"
/>
<path fill="#eabdc7" d="
  M 468.74 402.39
  A 0.75 0.75 0.0 0 1 468.03 401.38
  Q 471.27 392.51 476.21 385.08
  A 0.80 0.79 45.5 0 0 476.21 384.19
  Q 469.66 374.40 472.96 363.18
  C 474.12 359.22 477.45 354.30 482.30 355.18
  A 0.87 0.86 8.9 0 0 483.31 354.45
  Q 483.80 350.88 484.80 348.36
  C 487.16 342.34 492.88 338.73 498.51 343.81
  Q 499.37 344.59 500.62 345.97
  A 0.89 0.88 48.5 0 0 501.85 346.05
  C 508.07 340.68 517.33 343.44 514.65 352.89
  Q 514.28 354.21 513.37 356.04
  A 0.71 0.71 0.0 0 0 513.62 356.97
  C 525.40 364.51 518.10 371.76 508.62 375.28
  A 1.07 1.07 0.0 0 0 507.94 376.46
  Q 508.69 381.15 505.82 384.04
  C 501.32 388.57 493.27 390.79 487.30 389.73
  Q 486.08 389.52 481.10 387.87
  A 1.60 1.59 -65.1 0 0 479.25 388.55
  Q 475.33 394.95 473.11 401.35
  A 1.54 1.52 -80.3 0 1 471.67 402.39
  L 468.74 402.39
  Z
  M 489.11 359.68
  A 0.34 0.33 62.6 0 0 489.56 359.83
  L 495.76 356.81
  A 1.50 1.50 0.0 0 0 496.51 355.99
  Q 498.24 351.47 496.42 348.09
  C 494.64 344.73 491.36 345.81 489.66 348.60
  Q 486.20 354.31 489.11 359.68
  Z
  M 510.0006 348.1247
  A 6.34 3.44 -49.7 0 0 503.2764 350.7350
  A 6.34 3.44 -49.7 0 0 501.7994 357.7953
  A 6.34 3.44 -49.7 0 0 508.5236 355.1850
  A 6.34 3.44 -49.7 0 0 510.0006 348.1247
  Z
  M 479.27 380.27
  Q 486.51 373.45 485.72 363.08
  C 485.62 361.64 484.03 359.67 482.33 359.41
  C 479.74 359.01 477.92 361.60 477.33 363.88
  Q 475.24 371.93 478.67 380.14
  A 0.37 0.37 0.0 0 0 479.27 380.27
  Z
  M 502.21 370.59
  Q 507.96 372.55 512.98 368.21
  C 515.44 366.08 515.95 362.69 512.36 361.50
  Q 508.74 360.28 504.60 362.72
  A 1.50 1.49 -7.1 0 0 503.92 363.60
  L 501.99 370.18
  A 0.34 0.33 17.8 0 0 502.21 370.59
  Z
  M 489.39 372.70
  C 489.45 372.75 489.56 372.80 489.64 372.77
  Q 494.46 371.37 495.92 370.17
  Q 499.73 367.01 499.09 361.93
  Q 499.07 361.74 498.78 361.51
  Q 498.42 361.21 498.24 361.22
  Q 493.13 361.47 490.68 365.78
  Q 489.75 367.42 489.21 372.41
  C 489.20 372.50 489.27 372.60 489.39 372.70
  Z
  M 483.73 384.28
  Q 493.13 387.48 501.92 381.95
  C 503.15 381.19 504.15 378.87 503.57 377.24
  C 502.72 374.77 499.58 374.37 497.29 374.91
  Q 489.21 376.83 483.56 383.69
  A 0.37 0.37 0.0 0 0 483.73 384.28
  Z"
/>
<path fill="#eabdc7" d="
  M 406.31 402.57
  L 401.17 402.57
  A 3.06 3.04 63.9 0 1 399.29 401.92
  Q 387.47 392.69 374.18 387.16
  A 2.13 2.12 28.9 0 0 371.63 387.89
  C 369.86 390.36 368.79 392.37 366.51 394.40
  C 361.13 399.19 348.36 404.21 343.69 395.49
  A 1.02 1.02 0.0 0 0 342.47 395.00
  C 338.80 396.18 334.28 397.08 330.40 395.89
  C 324.80 394.17 325.16 388.09 327.15 383.71
  A 0.64 0.63 -66.6 0 0 326.82 382.87
  Q 322.08 380.91 320.03 376.72
  A 1.20 1.20 0.0 0 0 319.32 376.12
  L 313.18 374.27
  A 1.69 1.69 0.0 0 0 311.18 375.13
  Q 310.20 377.07 307.45 380.16
  Q 299.86 388.65 288.93 387.63
  C 282.17 386.99 281.55 380.13 283.82 374.99
  A 0.72 0.72 0.0 0 0 283.40 374.02
  C 272.16 369.93 274.88 358.86 286.50 359.03
  A 0.59 0.58 2.6 0 0 287.10 358.49
  Q 287.25 356.61 287.32 355.78
  C 288.07 346.96 295.32 347.13 301.39 350.84
  C 306.99 354.26 311.10 359.81 312.16 366.39
  Q 312.44 368.14 312.55 368.54
  A 0.97 0.97 0.0 0 0 313.21 369.24
  L 319.92 371.26
  A 1.02 1.02 0.0 0 0 320.91 371.03
  Q 324.56 367.70 329.84 367.78
  A 0.57 0.57 0.0 0 0 330.42 367.22
  C 330.57 358.99 335.63 354.74 343.31 358.54
  Q 346.05 359.89 349.13 362.88
  A 0.93 0.92 43.9 0 0 350.44 362.86
  C 353.78 359.39 359.02 360.72 362.42 363.09
  Q 372.19 369.86 373.24 381.54
  A 0.91 0.90 -82.3 0 0 373.82 382.31
  Q 391.90 389.06 406.57 401.90
  A 0.39 0.38 -24.2 0 1 406.31 402.57
  Z
  M 307.86 368.16
  Q 306.24 358.35 297.21 353.22
  C 295.95 352.50 293.43 352.71 292.27 353.99
  C 290.50 355.91 291.63 358.87 293.18 360.63
  Q 298.70 366.85 307.42 368.58
  A 0.37 0.37 0.0 0 0 307.86 368.16
  Z
  M 347.90 370.63
  Q 346.83 364.62 340.57 362.31
  C 337.51 361.19 334.27 362.38 334.96 366.12
  Q 335.65 369.90 339.82 372.36
  A 1.50 1.50 0.0 0 0 340.91 372.53
  L 347.64 371.03
  A 0.34 0.33 78.9 0 0 347.90 370.63
  Z
  M 295.01 368.59
  C 295.04 368.44 295.04 368.31 294.97 368.25
  Q 291.46 364.68 289.72 363.98
  Q 285.14 362.12 280.98 365.09
  Q 280.83 365.19 280.74 365.65
  Q 280.66 366.01 280.76 366.17
  Q 283.40 370.54 288.34 370.65
  Q 290.22 370.69 294.86 368.80
  C 294.94 368.77 295.00 368.66 295.01 368.59
  Z
  M 368.51 380.66
  A 0.37 0.37 0.0 0 0 368.90 380.19
  Q 366.46 371.60 359.79 366.58
  C 357.90 365.17 354.85 364.28 353.07 366.21
  C 351.89 367.47 351.88 370.01 352.70 371.21
  Q 358.57 379.84 368.51 380.66
  Z
  M 324.4189 374.5212
  A 6.31 3.44 -168.4 0 0 329.9083 379.1597
  A 6.31 3.44 -168.4 0 0 336.7811 377.0588
  A 6.31 3.44 -168.4 0 0 331.2917 372.4203
  A 6.31 3.44 -168.4 0 0 324.4189 374.5212
  Z
  M 306.63 374.11
  A 0.37 0.37 0.0 0 0 306.40 373.55
  Q 297.75 371.70 290.27 375.22
  C 288.15 376.21 285.96 378.47 286.83 380.92
  C 287.39 382.54 289.60 383.73 291.03 383.56
  Q 301.30 382.43 306.63 374.11
  Z
  M 355.78 380.94
  C 355.79 380.87 355.78 380.75 355.72 380.68
  Q 352.23 377.13 350.50 376.42
  Q 345.94 374.57 341.80 377.51
  Q 341.65 377.62 341.57 377.98
  Q 341.48 378.43 341.57 378.59
  Q 344.20 382.95 349.12 383.06
  Q 350.99 383.11 355.61 381.23
  C 355.69 381.20 355.75 381.09 355.78 380.94
  Z
  M 344.47 387.24
  A 0.34 0.33 -56.8 0 0 344.38 386.78
  L 338.73 382.87
  A 1.50 1.50 0.0 0 0 337.65 382.62
  Q 332.88 383.33 330.83 386.56
  C 328.79 389.75 331.33 392.07 334.58 392.18
  Q 341.23 392.39 344.47 387.24
  Z
  M 367.25 386.31
  Q 357.87 383.17 349.15 388.73
  C 347.94 389.50 346.95 391.82 347.54 393.43
  C 348.40 395.88 351.52 396.27 353.80 395.72
  Q 361.84 393.76 367.42 386.90
  A 0.37 0.37 0.0 0 0 367.25 386.31
  Z"
/>
<path fill="#eabdc7" d="
  M 491.24 401.91
  Q 505.91 389.07 523.99 382.32
  A 0.91 0.90 82.3 0 0 524.57 381.55
  Q 525.62 369.87 535.39 363.10
  C 538.79 360.73 544.03 359.40 547.37 362.87
  A 0.93 0.92 -43.9 0 0 548.68 362.89
  Q 551.76 359.90 554.50 358.55
  C 562.18 354.75 567.24 359.00 567.39 367.23
  A 0.57 0.57 0.0 0 0 567.97 367.79
  Q 573.25 367.71 576.90 371.04
  A 1.02 1.02 0.0 0 0 577.89 371.27
  L 584.60 369.25
  A 0.97 0.97 0.0 0 0 585.26 368.55
  Q 585.37 368.15 585.65 366.40
  C 586.71 359.82 590.82 354.27 596.42 350.85
  C 602.49 347.14 609.74 346.97 610.49 355.79
  Q 610.56 356.62 610.71 358.50
  A 0.59 0.58 -2.6 0 0 611.31 359.04
  C 622.93 358.87 625.65 369.94 614.41 374.03
  A 0.72 0.72 0.0 0 0 613.99 375.00
  C 616.26 380.14 615.64 387.00 608.88 387.64
  Q 597.95 388.66 590.36 380.17
  Q 587.61 377.08 586.63 375.14
  A 1.69 1.69 0.0 0 0 584.63 374.28
  L 578.49 376.13
  A 1.20 1.20 0.0 0 0 577.78 376.73
  Q 575.73 380.92 570.99 382.88
  A 0.64 0.63 66.6 0 0 570.66 383.72
  C 572.65 388.10 573.01 394.18 567.41 395.90
  C 563.53 397.09 559.01 396.19 555.34 395.01
  A 1.02 1.02 0.0 0 0 554.12 395.50
  C 549.45 404.22 536.68 399.20 531.30 394.41
  C 529.02 392.38 527.95 390.37 526.18 387.90
  A 2.13 2.12 -28.9 0 0 523.63 387.17
  Q 510.34 392.70 498.52 401.93
  A 3.06 3.04 -63.9 0 1 496.64 402.58
  L 491.50 402.58
  A 0.39 0.38 24.2 0 1 491.24 401.91
  Z
  M 590.00 368.17
  A 0.37 0.37 0.0 0 0 590.44 368.59
  Q 599.13 366.85 604.62 360.64
  C 606.17 358.88 607.29 355.93 605.52 354.02
  C 604.36 352.75 601.85 352.54 600.60 353.26
  Q 591.60 358.39 590.00 368.17
  Z
  M 549.92 370.65
  A 0.34 0.33 -79.2 0 0 550.18 371.04
  L 556.91 372.50
  A 1.50 1.50 0.0 0 0 558.01 372.32
  Q 562.16 369.84 562.82 366.06
  C 563.50 362.33 560.26 361.15 557.20 362.29
  Q 550.96 364.63 549.92 370.65
  Z
  M 602.81 368.61
  C 602.82 368.68 602.88 368.79 602.96 368.82
  Q 607.60 370.71 609.48 370.67
  Q 614.42 370.56 617.06 366.19
  Q 617.16 366.03 617.08 365.67
  Q 616.99 365.21 616.84 365.11
  Q 612.68 362.14 608.10 363.99
  Q 606.36 364.70 602.85 368.27
  C 602.79 368.33 602.78 368.46 602.81 368.61
  Z
  M 529.24 380.51
  A 0.37 0.37 0.0 0 0 529.68 380.93
  Q 538.42 379.20 543.96 372.98
  C 545.52 371.21 546.65 368.25 544.88 366.33
  C 543.72 365.05 541.20 364.83 539.94 365.55
  Q 530.88 370.68 529.24 380.51
  Z
  M 573.4077 374.5736
  A 6.31 3.46 -11.3 0 0 566.5420 372.4171
  A 6.31 3.46 -11.3 0 0 561.0323 377.0464
  A 6.31 3.46 -11.3 0 0 567.8980 379.2029
  A 6.31 3.46 -11.3 0 0 573.4077 374.5736
  Z
  M 591.20 374.14
  Q 596.57 382.44 606.85 383.54
  C 608.28 383.70 610.49 382.50 611.04 380.88
  C 611.90 378.42 609.70 376.18 607.58 375.18
  Q 600.08 371.70 591.44 373.58
  A 0.37 0.37 0.0 0 0 591.20 374.14
  Z
  M 542.04 381.00
  C 542.07 381.15 542.13 381.25 542.21 381.29
  Q 546.86 383.15 548.73 383.10
  Q 553.67 382.96 556.29 378.59
  Q 556.38 378.43 556.29 377.97
  Q 556.21 377.61 556.06 377.50
  Q 551.89 374.56 547.33 376.44
  Q 545.59 377.15 542.10 380.74
  C 542.03 380.80 542.03 380.92 542.04 381.00
  Z
  M 553.38 387.23
  Q 556.62 392.37 563.26 392.15
  C 566.51 392.03 569.04 389.71 567.00 386.53
  Q 564.95 383.31 560.18 382.60
  A 1.50 1.50 0.0 0 0 559.10 382.86
  L 553.47 386.77
  A 0.34 0.33 56.7 0 0 553.38 387.23
  Z
  M 530.50 386.46
  Q 535.83 394.78 546.09 395.92
  C 547.52 396.08 549.74 394.90 550.30 393.28
  C 551.16 390.83 548.97 388.57 546.85 387.57
  Q 539.37 384.06 530.73 385.91
  A 0.37 0.37 0.0 0 0 530.50 386.46
  Z"
/>
<path fill="#ece6e0" d="
  M 558.66 406.48
  A 9.87 9.87 0.0 0 1 568.53 416.35
  L 568.53 420.83
  A 49.47 48.71 -0.0 0 1 519.06 469.54
  L 378.76 469.54
  A 49.47 48.71 -0.0 0 1 329.29 420.83
  L 329.29 416.35
  A 9.87 9.87 0.0 0 1 339.16 406.48
  L 558.66 406.48
  Z
  M 551.64 415.49
  L 346.18 415.49
  A 6.02 6.02 0.0 0 0 340.16 421.51
  L 340.16 425.54
  A 34.62 33.97 -0.0 0 0 374.78 459.51
  L 523.04 459.51
  A 34.62 33.97 0.0 0 0 557.66 425.54
  L 557.66 421.51
  A 6.02 6.02 0.0 0 0 551.64 415.49
  Z"
/>
<path fill="#ece6e0" d="
  M 361.08 496.19
  C 341.22 494.69 330.32 507.92 327.74 526.27
  C 325.07 545.32 330.74 569.02 352.86 572.10
  C 367.55 574.15 380.91 567.55 387.49 554.04
  A 1.21 1.21 0.0 0 1 388.58 553.36
  L 389.79 553.36
  A 0.51 0.50 -81.1 0 1 390.27 554.02
  C 383.12 575.52 366.41 588.57 343.24 585.67
  C 316.60 582.33 303.76 558.96 305.45 533.65
  C 307.62 500.89 333.48 483.68 364.72 488.68
  C 374.69 490.28 385.86 495.61 387.32 506.22
  Q 388.24 512.87 384.35 518.08
  C 377.99 526.61 364.39 526.48 358.73 517.02
  Q 353.75 508.70 359.12 499.57
  C 359.69 498.60 360.94 497.73 361.43 496.87
  A 0.46 0.45 -72.8 0 0 361.08 496.19
  Z"
/>
<path fill="#ece6e0" d="
  M 433.09 576.68
  A 0.29 0.29 0.0 0 0 432.57 576.58
  Q 426.09 585.37 415.00 585.98
  C 401.91 586.70 390.90 577.88 392.31 564.01
  C 393.97 547.68 415.28 544.54 425.76 539.77
  Q 428.55 538.49 430.54 536.45
  A 3.35 3.32 -32.2 0 0 431.32 533.07
  Q 428.42 524.32 419.32 522.40
  Q 416.62 521.83 414.18 522.78
  A 0.48 0.47 -32.6 0 0 414.01 523.55
  C 420.44 530.08 417.11 540.38 407.75 541.19
  C 400.12 541.84 395.01 534.55 397.14 527.37
  C 401.35 513.18 427.70 513.56 438.54 517.53
  Q 449.29 521.47 452.81 530.82
  Q 454.46 535.19 454.42 547.40
  Q 454.34 572.98 454.35 573.42
  C 454.50 578.04 456.56 579.71 460.61 577.33
  A 0.30 0.30 0.0 0 1 461.03 577.71
  C 456.13 588.63 436.33 589.60 433.09 576.68
  Z
  M 431.81 544.05
  Q 422.28 549.13 419.34 551.32
  Q 413.54 555.65 414.04 562.97
  C 414.55 570.39 421.51 576.00 427.97 569.86
  Q 431.43 566.57 432.36 560.66
  Q 432.82 557.75 432.44 544.42
  A 0.43 0.43 0.0 0 0 431.81 544.05
  Z"
/>
<path fill="#ece6e0" d="
  M 480.10 577.13
  Q 485.09 579.42 491.65 578.58
  C 497.91 577.78 502.11 573.45 498.31 567.26
  Q 496.69 564.62 492.10 561.65
  C 488.23 559.14 478.99 554.38 472.56 548.45
  C 465.99 542.39 463.67 534.03 468.03 526.07
  C 475.80 511.89 509.61 511.05 518.11 525.47
  C 522.79 533.42 515.70 543.28 506.84 539.65
  C 500.52 537.06 499.12 528.92 503.99 524.37
  A 0.60 0.60 0.0 0 0 503.85 523.39
  Q 499.92 521.42 495.42 521.61
  C 489.23 521.87 484.15 526.14 487.91 532.56
  Q 488.98 534.38 492.21 536.67
  C 503.13 544.44 522.61 550.91 520.47 568.89
  C 519.26 579.02 510.02 583.96 500.60 585.40
  C 489.80 587.04 474.72 585.99 466.61 577.90
  C 460.83 572.13 461.01 562.48 468.94 559.02
  C 479.53 554.39 488.66 568.51 479.97 576.25
  A 0.53 0.53 0.0 0 0 480.10 577.13
  Z"
/>
<path fill="#ece6e0" d="
  M 565.04 576.67
  A 0.29 0.29 0.0 0 0 564.52 576.57
  Q 558.05 585.36 546.96 585.98
  C 533.87 586.70 522.86 577.88 524.26 564.01
  C 525.92 547.68 547.23 544.54 557.71 539.77
  Q 560.50 538.49 562.49 536.45
  A 3.35 3.32 -32.2 0 0 563.27 533.07
  Q 560.36 524.32 551.26 522.40
  Q 548.56 521.83 546.12 522.78
  A 0.48 0.47 -32.7 0 0 545.96 523.55
  C 552.39 530.08 549.06 540.38 539.70 541.19
  C 532.07 541.84 526.96 534.55 529.09 527.37
  C 533.29 513.18 559.64 513.56 570.48 517.52
  Q 581.23 521.46 584.75 530.81
  Q 586.41 535.18 586.37 547.39
  Q 586.29 572.97 586.30 573.41
  C 586.45 578.03 588.51 579.70 592.56 577.32
  A 0.30 0.30 0.0 0 1 592.98 577.70
  C 588.09 588.62 568.29 589.59 565.04 576.67
  Z
  M 563.73 544.06
  Q 554.21 549.15 551.28 551.34
  Q 545.49 555.67 545.99 562.98
  C 546.51 570.40 553.47 576.00 559.92 569.85
  Q 563.37 566.56 564.30 560.66
  Q 564.75 557.75 564.36 544.43
  A 0.43 0.43 0.0 0 0 563.73 544.06
  Z"
/>
<path fill="#ece6e0" d="
  M 243.08 587.47
  A 0.45 0.44 -72.8 0 0 242.73 586.80
  C 223.20 585.32 212.48 598.33 209.94 616.37
  C 207.31 635.11 212.88 658.42 234.64 661.45
  C 249.08 663.47 262.22 656.98 268.70 643.69
  A 1.19 1.19 0.0 0 1 269.77 643.02
  L 270.96 643.02
  A 0.50 0.50 0.0 0 1 271.43 643.67
  C 264.40 664.82 247.96 677.65 225.17 674.79
  C 198.98 671.51 186.35 648.52 188.02 623.63
  C 190.16 591.41 215.59 574.49 246.31 579.41
  C 256.12 580.99 267.10 586.23 268.54 596.66
  Q 269.44 603.20 265.61 608.33
  C 259.36 616.72 245.98 616.59 240.42 607.28
  Q 235.52 599.10 240.80 590.12
  C 241.36 589.17 242.59 588.31 243.08 587.47
  Z"
/>
<path fill="#ece6e0" d="
  M 588.85 610.69
  A 0.32 0.32 0.0 0 0 589.37 610.93
  Q 594.29 606.87 599.32 606.06
  C 624.91 601.93 639.83 622.47 636.71 646.55
  C 634.87 660.77 626.35 670.66 611.91 673.87
  Q 596.75 677.24 583.41 672.09
  C 580.03 670.78 576.34 672.51 573.10 673.65
  A 4.44 4.44 0.0 0 1 571.66 673.89
  L 567.86 673.89
  A 0.37 0.37 0.0 0 1 567.49 673.52
  Q 567.61 639.90 567.44 595.51
  Q 567.42 591.43 563.11 587.54
  A 0.83 0.83 0.0 0 1 562.99 586.45
  L 564.20 584.69
  A 0.52 0.51 55.3 0 1 565.12 584.86
  C 567.89 595.45 580.59 595.79 588.51 591.31
  A 0.23 0.23 0.0 0 1 588.85 591.51
  L 588.85 610.69
  Z
  M 601.32 667.09
  C 610.72 667.37 614.45 656.23 615.17 647.87
  Q 616.01 638.15 615.07 630.51
  C 614.22 623.51 610.73 613.81 602.89 613.58
  C 595.06 613.35 591.00 622.83 589.74 629.77
  Q 588.36 637.34 588.62 647.10
  C 588.85 655.48 591.92 666.82 601.32 667.09
  Z"
/>
<path fill="#ece6e0" d="
  M 351.22 594.08
  C 358.86 593.14 365.04 592.05 371.55 587.88
  A 0.36 0.36 0.0 0 1 372.11 588.18
  Q 372.14 632.01 372.08 655.72
  C 372.06 663.01 371.93 667.16 377.28 671.16
  A 1.51 1.50 -26.5 0 1 376.37 673.87
  L 346.56 673.87
  A 1.48 1.47 22.0 0 1 345.49 671.37
  C 348.32 668.44 349.68 667.33 350.61 663.75
  A 3.00 2.62 -41.2 0 0 350.71 663.01
  L 350.82 594.54
  A 0.46 0.46 0.0 0 1 351.22 594.08
  Z"
/>
<path fill="#ece6e0" d="
  M 333.59 614.89
  C 347.04 628.32 345.82 652.99 333.47 665.37
  C 321.12 677.74 296.45 679.01 283.00 665.58
  C 269.55 652.15 270.77 627.48 283.12 615.11
  C 295.47 602.73 320.14 601.47 333.59 614.89
  Z
  M 294.88 640.32
  C 294.85 648.08 296.72 667.10 308.15 667.14
  C 319.58 667.18 321.59 648.18 321.61 640.42
  C 321.64 632.66 319.77 613.64 308.34 613.60
  C 296.91 613.56 294.91 632.57 294.88 640.32
  Z"
/>
<path fill="#ece6e0" d="
  M 389.47 615.11
  C 401.82 602.74 426.49 601.47 439.94 614.89
  C 453.39 628.32 452.17 652.99 439.82 665.37
  C 427.46 677.74 402.80 679.01 389.34 665.58
  C 375.89 652.15 377.12 627.48 389.47 615.11
  Z
  M 414.6944 613.3202
  A 27.05 13.60 -89.8 0 0 401.0001 640.3225
  A 27.05 13.60 -89.8 0 0 414.5056 667.4198
  A 27.05 13.60 -89.8 0 0 428.1999 640.4175
  A 27.05 13.60 -89.8 0 0 414.6944 613.3202
  Z"
/>
<path fill="#ece6e0" d="
  M 562.33 666.50
  A 0.25 0.25 0.0 0 1 562.74 666.75
  C 560.63 673.92 551.31 675.96 544.69 674.80
  C 537.88 673.60 534.87 667.91 534.80 661.49
  Q 534.72 654.02 534.69 628.77
  C 534.69 625.18 533.52 620.86 531.28 618.04
  C 528.82 614.94 524.49 614.97 521.86 617.69
  Q 517.97 621.72 517.41 629.25
  Q 517.22 631.88 517.31 655.18
  C 517.34 662.88 516.81 666.80 522.05 670.87
  A 1.93 1.92 43.7 0 1 522.12 673.85
  Q 522.10 673.87 521.27 673.87
  Q 507.25 673.87 496.18 673.88
  A 0.38 0.38 0.0 0 1 495.80 673.50
  Q 495.84 637.38 495.80 631.25
  C 495.76 625.23 494.40 614.72 486.60 615.75
  C 480.43 616.56 478.39 626.17 478.35 631.00
  Q 478.32 634.39 478.36 661.07
  Q 478.37 667.45 483.52 671.11
  A 1.53 1.53 0.0 0 1 482.63 673.89
  L 452.83 673.89
  A 1.52 1.52 0.0 0 1 451.78 671.26
  C 454.75 668.44 456.88 666.19 456.95 661.74
  Q 457.05 655.28 456.99 624.71
  C 456.98 619.72 455.83 616.59 452.10 613.92
  A 1.84 1.84 0.0 0 1 452.83 610.62
  Q 459.47 609.36 471.62 607.12
  Q 473.54 606.77 477.84 606.88
  A 0.53 0.53 0.0 0 1 478.36 607.41
  L 478.36 615.11
  A 0.23 0.22 62.4 0 0 478.77 615.24
  Q 485.82 604.99 497.92 605.48
  C 506.76 605.83 511.90 610.32 515.31 618.16
  A 0.33 0.32 50.5 0 0 515.88 618.22
  Q 516.73 616.96 517.54 615.76
  Q 526.56 602.32 542.35 606.40
  C 551.85 608.85 556.00 619.50 556.05 629.02
  Q 556.08 633.77 556.09 662.74
  C 556.09 665.02 556.49 667.31 559.13 667.62
  Q 560.95 667.82 562.33 666.50
  Z"
/>
<path fill="#ece6e0" d="
  M 649.91 615.11
  C 662.26 602.74 686.93 601.47 700.38 614.90
  C 713.84 628.32 712.62 652.99 700.26 665.37
  C 687.91 677.75 663.24 679.01 649.79 665.59
  C 636.34 652.16 637.56 627.49 649.91 615.11
  Z
  M 675.1445 613.3102
  A 27.06 13.59 -89.8 0 0 661.4601 640.3226
  A 27.06 13.59 -89.8 0 0 674.9555 667.4298
  A 27.06 13.59 -89.8 0 0 688.6399 640.4174
  A 27.06 13.59 -89.8 0 0 675.1445 613.3102
  Z"
/>
<path fill="#ece6e0" d="
  M 737.35 665.77
  A 8.77 8.77 0.0 0 1 728.58 674.54
  A 8.77 8.77 0.0 0 1 719.81 665.77
  A 8.77 8.77 0.0 0 1 728.58 657.00
  A 8.77 8.77 0.0 0 1 737.35 665.77
  Z
  M 735.50 665.81
  A 6.93 6.93 0.0 0 0 728.57 658.88
  A 6.93 6.93 0.0 0 0 721.64 665.81
  A 6.93 6.93 0.0 0 0 728.57 672.74
  A 6.93 6.93 0.0 0 0 735.50 665.81
  Z"
/>
<path fill="#ece6e0" d="
  M 728.28 666.83
  A 0.57 0.57 0.0 0 0 727.38 667.30
  L 727.38 669.80
  A 0.60 0.59 -90.0 0 1 726.79 670.40
  L 726.25 670.40
  A 0.91 0.90 -90.0 0 1 725.35 669.49
  L 725.35 661.73
  A 0.65 0.64 87.6 0 1 725.94 661.08
  C 728.81 660.82 733.12 660.99 732.05 665.00
  Q 731.99 665.23 731.32 665.99
  Q 730.37 667.09 731.94 669.24
  A 0.85 0.59 61.7 0 1 731.80 670.45
  Q 731.20 670.58 730.41 670.31
  Q 730.03 670.18 729.68 669.19
  Q 729.02 667.34 728.28 666.83
  Z
  M 730.21 663.95
  A 1.50 1.50 0.0 0 0 728.71 662.45
  A 1.50 1.50 0.0 0 0 727.21 663.95
  A 1.50 1.50 0.0 0 0 728.71 665.45
  A 1.50 1.50 0.0 0 0 730.21 663.95
  Z"
/>
</svg>
